Coordinates
version=1
nRows=8
nColumns=46
inDegrees=yes

Units are S.I. units (second, meters, Newtons, ...)
Angles are in degrees.

endheader
time	pelvis_tilt	pelvis_list	pelvis_rotation	pelvis_tx	pelvis_ty	pelvis_tz	bb_angle	bb_tx	bb_ty	bb_tz	hip_flexion_r	hip_adduction_r	hip_rotation_r	knee_angle_r	knee_angle_r_beta	ankle_angle_r	subtalar_angle_r	mtp_angle_r	crank_angle_r	hip_flexion_l	hip_adduction_l	hip_rotation_l	knee_angle_l	knee_angle_l_beta	ankle_angle_l	subtalar_angle_l	mtp_angle_l	crank_angle_l	lumbar_extension	lumbar_bending	lumbar_rotation	arm_flex_r	arm_add_r	arm_rot_r	elbow_flex_r	pro_sup_r	wrist_flex_r	wrist_dev_r	arm_flex_l	arm_add_l	arm_rot_l	elbow_flex_l	pro_sup_l	wrist_flex_l	wrist_dev_l
      0.00000000	    -22.17562214	     -6.45659018	     -5.38935509	      0.12990137	      1.12389294	     -0.23525410	      0.00000000	      0.50000000	      0.00000000	      0.25000000	     90.80040175	      3.58539099	     -0.20828081	     95.39455752	      1.66494912	     17.47756000	     -7.43200134	      0.00000000	      0.00000000	     38.92655452	    -12.97970405	     -3.53489507	     26.37415012	      0.46031576	     -1.30262279	      2.86322733	      0.00000000	      0.00000000	    -44.95085701	      2.74446219	     11.11751608	     89.52994718	     -7.82332612	     46.27095131	     28.04959256	     25.86818696	      0.00000000	      0.00000000	     89.50181903	     -3.45709469	     20.56525394	     29.35380236	     28.99796977	      0.00000000	      0.00000000
      0.00500000	    -22.18689060	     -6.46697205	     -5.41892555	      0.12995027	      1.12388390	     -0.23522382	      0.00000000	      0.50000000	      0.00000000	      0.25000000	     90.80903529	      3.61641215	     -0.21684107	     95.39675693	      1.66498750	     17.46539828	     -7.44100260	      0.00000000	      0.00000000	     38.92788175	    -13.00566237	     -3.54465979	     26.36888858	      0.46022393	     -1.30763224	      2.83537100	      0.00000000	      0.00000000	    -44.94848385	      2.74056399	     11.12166170	     89.52825305	     -7.71786275	     45.90176507	     27.65009712	     27.70577612	      0.00000000	      0.00000000	     89.50227171	     -3.47250054	     20.22181226	     29.11255516	     30.99253812	      0.00000000	      0.00000000
      0.01000000	    -22.16762692	     -6.44572729	     -5.44653544	      0.13000543	      1.12391384	     -0.23518932	      0.00000000	      0.50000000	      0.00000000	      0.25000000	     90.79199194	      3.64417542	     -0.19319171	     95.40919286	      1.66520455	     17.47965028	     -7.39002202	      0.00000000	      0.00000000	     38.88199475	    -13.00223867	     -3.59445760	     26.34211150	      0.45975658	     -1.29919745	      2.84906122	      0.00000000	      0.00000000	    -44.98053949	      2.71824752	     11.12240814	     89.51963224	     -7.53487916	     45.18155435	     27.48217041	     28.45025697	      0.00000000	      0.00000000	     89.50417351	     -3.41263119	     19.83175162	     29.01630278	     31.75130860	      0.00000000	      0.00000000
      0.01500000	    -21.93897235	     -6.31712091	     -5.08927859	      0.12963247	      1.12461394	     -0.23659271	      0.00000000	      0.50000000	      0.00000000	      0.25000000	     90.39183320	      3.16954160	      0.00538825	     95.38030021	      1.66470028	     18.08051408	     -6.97691310	      0.00000000	      0.00000000	     38.46893199	    -12.27969363	     -2.28066908	     25.87399803	      0.45158646	     -1.66363561	      0.40130411	      0.00000000	      0.00000000	    -45.31722290	      2.99239746	     10.67714197	     89.53703374	     -7.02766164	     43.62375039	     27.11335791	     30.69261215	      0.00000000	      0.00000000	     89.49263037	     -3.91012140	     19.64209760	     29.13786000	     33.79731902	      0.00000000	      0.00000000
      0.02000000	    -22.03781694	     -6.51453148	     -5.42352326	      0.12942831	      1.12476921	     -0.23495216	      0.00000000	      0.50000000	      0.00000000	      0.25000000	     90.44327635	      3.81024794	     -0.14123504	     95.22635583	      1.66201344	     17.90561062	     -7.48683333	      0.00000000	      0.00000000	     38.52860817	    -12.90200982	     -2.57753730	     25.82779711	      0.45078010	     -1.76297304	      2.18892977	      0.00000000	      0.00000000	    -45.40607002	      2.86332158	     11.09716001	     89.52770183	     -7.19795595	     42.94391890	     27.74732394	     31.38394313	      0.00000000	      0.00000000	     89.47982261	     -3.90184480	     19.11857890	     29.99657622	     34.45099296	      0.00000000	      0.00000000
      0.02500000	    -22.35944587	     -7.01431401	     -5.25545573	      0.12889985	      1.12401911	     -0.23459653	      0.00000000	      0.50000000	      0.00000000	      0.25000000	     90.75884633	      3.67529217	     -0.75717413	     95.17628120	      1.66113948	     17.79467176	     -7.56985720	      0.00000000	      0.00000000	     39.02744505	    -13.01213953	     -0.96249767	     25.92876513	      0.45254232	     -1.77225423	      0.95078241	      0.00000000	      0.00000000	    -44.94554990	      3.39926058	     11.33861330	     89.53621539	     -7.18627547	     43.86811786	     26.99272541	     31.60266053	      0.00000000	      0.00000000	     89.51427161	     -3.59541256	     19.17151513	     28.68157800	     34.64332789	      0.00000000	      0.00000000
      0.03000000	    -22.33907634	     -7.04787330	     -5.15794453	      0.12891518	      1.12409032	     -0.23498453	      0.00000000	      0.50000000	      0.00000000	      0.25000000	     90.71123988	      3.53170315	     -0.80140206	     95.16940576	      1.66101948	     17.84009692	     -7.49329788	      0.00000000	      0.00000000	     39.03479319	    -12.94957214	     -0.82821385	     25.93379537	      0.45263012	     -1.78867327	      0.91474264	      0.00000000	      0.00000000	    -44.97496976	      3.50830386	     11.28814448	     89.53834514	     -7.31204226	     44.19647583	     27.04708885	     31.89459749	      0.00000000	      0.00000000	     89.51282709	     -3.59238702	     19.10341835	     28.64359389	     34.98060132	      0.00000000	      0.00000000
      0.03500000	    -22.39092444	     -7.05453274	     -5.11103829	      0.12882139	      1.12403058	     -0.23513381	      0.00000000	      0.50000000	      0.00000000	      0.25000000	     90.76933887	      3.45707298	     -0.82154824	     95.15671470	      1.66079798	     17.79822371	     -7.51892468	      0.00000000	      0.00000000	     39.16858213	    -13.01145350	     -1.21824650	     26.03553974	      0.45440589	     -1.70907060	      1.30432214	      0.00000000	      0.00000000	    -44.93954822	      3.57531141	     11.25806761	     89.53774857	     -7.11968636	     43.43003041	     26.72647868	     33.22247723	      0.00000000	      0.00000000	     89.50898146	     -3.46611861	     18.27719826	     28.53791719	     35.99347856	      0.00000000	      0.00000000
